<svg width="37" height="40" viewBox="0 0 37 40" fill="none" xmlns="http://www.w3.org/2000/svg">
<path d="M31.535 18.5684H4.505V8.25263H31.535M28.1563 30.9474C27.2602 30.9474 26.4008 30.6213 25.7671 30.0409C25.1335 29.4606 24.7775 28.6734 24.7775 27.8526C24.7775 27.0319 25.1335 26.2447 25.7671 25.6643C26.4008 25.0839 27.2602 24.7579 28.1563 24.7579C29.0524 24.7579 29.9117 25.0839 30.5454 25.6643C31.179 26.2447 31.535 27.0319 31.535 27.8526C31.535 28.6734 31.179 29.4606 30.5454 30.0409C29.9117 30.6213 29.0524 30.9474 28.1563 30.9474ZM7.88375 30.9474C6.98765 30.9474 6.12825 30.6213 5.49461 30.0409C4.86097 29.4606 4.505 28.6734 4.505 27.8526C4.505 27.0319 4.86097 26.2447 5.49461 25.6643C6.12825 25.0839 6.98765 24.7579 7.88375 24.7579C8.77985 24.7579 9.63925 25.0839 10.2729 25.6643C10.9065 26.2447 11.2625 27.0319 11.2625 27.8526C11.2625 28.6734 10.9065 29.4606 10.2729 30.0409C9.63925 30.6213 8.77985 30.9474 7.88375 30.9474ZM0 28.8842C0 30.6998 0.878475 32.3297 2.2525 33.4644V37.1368C2.2525 37.684 2.48982 38.2088 2.91224 38.5957C3.33467 38.9826 3.9076 39.2 4.505 39.2H6.7575C7.3549 39.2 7.92783 38.9826 8.35026 38.5957C8.77268 38.2088 9.01 37.684 9.01 37.1368V35.0737H27.03V37.1368C27.03 37.684 27.2673 38.2088 27.6897 38.5957C28.1122 38.9826 28.6851 39.2 29.2825 39.2H31.535C32.1324 39.2 32.7053 38.9826 33.1278 38.5957C33.5502 38.2088 33.7875 37.684 33.7875 37.1368V33.4644C35.1615 32.3297 36.04 30.6998 36.04 28.8842V8.25263C36.04 1.03158 27.9761 0 18.02 0C8.06395 0 0 1.03158 0 8.25263V28.8842Z" fill="white"/>
<path d="M7.55249 13.6233H6.19019L6.18286 12.9128H7.35107C7.55127 12.9128 7.71851 12.8848 7.85278 12.8286C7.98706 12.7725 8.08838 12.6907 8.15674 12.5833C8.22754 12.4758 8.26294 12.3452 8.26294 12.1914C8.26294 12.0205 8.22998 11.8813 8.16406 11.7739C8.10059 11.6665 8.00049 11.5884 7.86377 11.5396C7.72705 11.4883 7.55371 11.4626 7.34375 11.4626H6.51611V16H5.50903V10.668H7.34375C7.64648 10.668 7.91626 10.6973 8.15308 10.7559C8.39233 10.812 8.59497 10.8999 8.76099 11.0195C8.927 11.1392 9.05273 11.2893 9.13818 11.47C9.22607 11.6506 9.27002 11.8655 9.27002 12.1145C9.27002 12.3342 9.21875 12.5369 9.11621 12.7224C9.01611 12.9055 8.86108 13.0544 8.65112 13.1692C8.4436 13.2839 8.17993 13.3499 7.86011 13.3669L7.55249 13.6233ZM7.50854 16H5.89355L6.3147 15.209H7.50854C7.70874 15.209 7.87354 15.176 8.00293 15.1101C8.13477 15.0442 8.23242 14.9539 8.2959 14.8391C8.36182 14.7219 8.39478 14.5876 8.39478 14.4363C8.39478 14.2703 8.36548 14.1262 8.30688 14.0042C8.25073 13.8821 8.1604 13.7881 8.03589 13.7222C7.91382 13.6562 7.75269 13.6233 7.55249 13.6233H6.50513L6.51245 12.9128H7.84546L8.07617 13.1875C8.38379 13.1899 8.63403 13.251 8.8269 13.3706C9.02222 13.4902 9.16626 13.644 9.25903 13.832C9.35181 14.02 9.39819 14.2227 9.39819 14.4399C9.39819 14.7817 9.32373 15.0686 9.1748 15.3005C9.02832 15.5325 8.81348 15.707 8.53027 15.8242C8.24951 15.9414 7.90894 16 7.50854 16ZM12.5549 15.0588V12.0376H13.5291V16H12.6135L12.5549 15.0588ZM12.6794 14.2385L12.9797 14.2312C12.9797 14.4973 12.9504 14.7427 12.8918 14.9673C12.8333 15.1919 12.7417 15.3872 12.6172 15.5532C12.4951 15.7168 12.3401 15.845 12.1521 15.9377C11.9641 16.0281 11.7419 16.0732 11.4856 16.0732C11.2903 16.0732 11.1121 16.0464 10.9509 15.9927C10.7898 15.9365 10.6506 15.8499 10.5334 15.7327C10.4187 15.613 10.3296 15.4604 10.2661 15.2749C10.2026 15.0869 10.1709 14.8611 10.1709 14.5974V12.0376H11.1377V14.6047C11.1377 14.7366 11.1523 14.8464 11.1816 14.9343C11.2134 15.0222 11.2561 15.0942 11.3098 15.1504C11.366 15.2041 11.4307 15.2432 11.5039 15.2676C11.5796 15.2896 11.6602 15.3005 11.7456 15.3005C11.98 15.3005 12.1643 15.2542 12.2986 15.1614C12.4353 15.0662 12.533 14.9392 12.5916 14.7805C12.6501 14.6194 12.6794 14.4387 12.6794 14.2385ZM16.5649 14.916C16.5649 14.833 16.543 14.7585 16.499 14.6926C16.4551 14.6267 16.3721 14.5669 16.25 14.5132C16.1304 14.457 15.9546 14.4045 15.7227 14.3557C15.5176 14.3118 15.3284 14.2568 15.155 14.1909C14.9817 14.125 14.8328 14.0457 14.7083 13.9529C14.5837 13.8577 14.4861 13.7466 14.4153 13.6196C14.3469 13.4902 14.3127 13.3413 14.3127 13.1729C14.3127 13.0093 14.3481 12.8555 14.4189 12.7114C14.4897 12.5649 14.5923 12.4368 14.7266 12.3269C14.8608 12.2146 15.0244 12.1267 15.2173 12.0632C15.4102 11.9973 15.6274 11.9644 15.8691 11.9644C16.2061 11.9644 16.4954 12.0193 16.7371 12.1292C16.9812 12.239 17.168 12.3904 17.2974 12.5833C17.4268 12.7737 17.4915 12.9885 17.4915 13.2278H16.5247C16.5247 13.1228 16.5002 13.0276 16.4514 12.9421C16.405 12.8567 16.333 12.7883 16.2354 12.7371C16.1377 12.6833 16.0144 12.6565 15.8655 12.6565C15.7312 12.6565 15.6177 12.6785 15.5249 12.7224C15.4346 12.7664 15.3662 12.8237 15.3198 12.8945C15.2734 12.9653 15.2502 13.0435 15.2502 13.1289C15.2502 13.1924 15.2625 13.2498 15.2869 13.301C15.3137 13.3499 15.3564 13.395 15.415 13.4365C15.4736 13.478 15.553 13.5159 15.6531 13.55C15.7556 13.5842 15.8813 13.6172 16.0303 13.6489C16.3257 13.7075 16.5833 13.7856 16.803 13.8833C17.0251 13.9785 17.1985 14.1055 17.323 14.2642C17.4475 14.4229 17.5098 14.6255 17.5098 14.8721C17.5098 15.0479 17.4719 15.209 17.3962 15.3555C17.3206 15.4995 17.2107 15.6252 17.0667 15.7327C16.9226 15.8401 16.7505 15.9243 16.5503 15.9854C16.3501 16.0439 16.1243 16.0732 15.8728 16.0732C15.509 16.0732 15.2014 16.0085 14.95 15.8792C14.6985 15.7473 14.5081 15.5813 14.3787 15.3811C14.2493 15.1785 14.1846 14.9685 14.1846 14.7512H15.1111C15.1184 14.905 15.1599 15.0283 15.2356 15.1211C15.3113 15.2139 15.4065 15.281 15.5212 15.3225C15.6384 15.3616 15.7617 15.3811 15.8911 15.3811C16.0376 15.3811 16.1609 15.3616 16.261 15.3225C16.3611 15.281 16.4368 15.2261 16.488 15.1577C16.5393 15.0869 16.5649 15.0063 16.5649 14.916ZM21.897 14.0554V14.8171H18.0554L18.0151 14.2312L20.2747 10.668H21.0474L20.2124 12.0852L19.0002 14.0554H21.897ZM21.2634 10.668V16H20.293V10.668H21.2634ZM24.7241 11.4773L23.2043 16H22.1387L24.1309 10.668H24.812L24.7241 11.4773ZM25.9949 16L24.4678 11.4773L24.3762 10.668H25.061L27.0642 16H25.9949ZM25.9253 14.0188V14.8135H23.0652V14.0188H25.9253ZM28.5657 10.375V16H27.5952V10.375H28.5657ZM30.5139 10.375V16H29.5435V10.375H30.5139Z" fill="white"/>
</svg>
